<svg xmlns="http://www.w3.org/2000/svg" version="1.1" xmlns:xlink="http://www.w3.org/1999/xlink" xmlns:svgjs="http://svgjs.dev/svgjs" width="1000" height="1000" viewBox="0 0 1000 1000"><rect width="1000" height="1000" fill="#ffffff"></rect><g transform="matrix(0.7,0,0,0.7,150.0000000000001,106.25)"><svg viewBox="0 0 320 360" data-background-color="#ffffff" preserveAspectRatio="xMidYMid meet" height="1125" width="1000" xmlns="http://www.w3.org/2000/svg" xmlns:xlink="http://www.w3.org/1999/xlink"><g id="tight-bounds" transform="matrix(1,0,0,1,0,0)"><svg viewBox="0 0 320 360" height="360" width="320"><g><svg></svg></g><g><svg viewBox="0 0 320 360" height="360" width="320"><g><path xmlns="http://www.w3.org/2000/svg" d="M20.961 227.22l3.726 4.658-1.863-6.056c-0.466-2.795-3.726 0.466-1.863 1.398M25.153 224.425c1.397 2.329 2.795 4.658 2.795 6.987 0 3.261 2.795 4.658 5.123 5.589-3.261-3.726-5.124-13.974-7.918-12.576M204.017 26.929c7.918 0 15.371-0.932 23.756 0.931 20.495 5.124 37.729 15.371 49.374 29.811l32.606 52.169c1.397 13.042 4.192 27.482 3.726 43.319 3.261 0 2.795-4.658 6.521-5.59-3.726 9.316-5.59 20.961-6.521 34.469-2.329-7.453 0-18.632 0.466-24.687-3.261 5.124-5.124 1.397-5.124-0.932 0.466-3.726-1.397-3.261-2.795-4.658-5.124-4.658-8.384-9.782-12.11-17.7 2.329-6.055 2.795-14.905-4.658-19.563-2.329-1.397-5.124-3.726-6.521-7.453-1.863-5.124-5.124-11.179-4.193-19.097 0.466-2.329-6.987 5.124-11.179 1.863-18.166-12.576-36.332-27.016-58.224-39.127-11.645 0-20.029-4.192-24.221-9.316-3.726-4.658-0.932-10.713 4.658-11.179 3.261 0 6.987-0.932 9.782 0.932 0.466-1.863 2.329-4.192 4.657-4.192M157.904 16.215l0.932 0.466c4.658 0.932 6.987 7.453 12.11 5.124 0 3.261 0.466 6.521-0.466 8.85-1.397 3.726-5.59 3.726-8.85 3.726-31.208-1.863-49.374 11.179-68.471 22.358-5.124 3.261-10.713 5.59-14.906 9.782-20.029 18.632-41.921 35.866-47.045 70.335l-4.192 38.195c-0.466 4.192-5.124 8.384-4.192 13.508l3.26 22.824c-3.261-3.261-5.124 0.932-4.192 2.795 0.466 1.397 2.329 6.055 5.124 1.863 3.726 6.987 7.453 20.495 12.576 26.55 15.837 18.632 36.332 35.4 53.101 52.169 4.192-0.932 7.453-0.932 8.384-3.727 1.397 2.795-1.397 5.59-3.726 6.056 7.453 4.658 15.837 8.85 27.016 9.781 14.44 0.932 27.948 3.261 40.524 6.522 6.521-1.863 13.042-2.795 20.029-3.261 2.329 0 3.726-3.726 6.521-4.658l0.466-4.658c2.795 4.192 2.329-1.397 0.466-4.192 3.261 2.795 4.192 5.124 5.589 6.987 0-1.397 3.726-6.521 3.727-0.466l0.931-6.055c1.397-0.932 1.863 5.124 3.261 0.931 1.397-4.192 4.192-0.932 6.987-2.329-0.932 1.863-0.466 5.59 2.794 3.261l3.727-3.261c2.329 5.59 6.055 3.261 7.918 2.329 20.495-13.042 40.99-28.413 60.553-43.784l-0.466 6.055 2.329-7.453c2.329 2.329 4.192 0.466 5.124-0.931 2.795-4.658 6.521-9.316 12.577-13.508-7.453 20.029-16.303 35.866-27.482 48.908l-4.658 5.59c0 3.261-0.932 7.453-4.658 7.918-1.863 0.466-5.59-0.932-8.384 1.863-1.397 1.863 3.261 5.59-0.466 2.795-3.261-2.329-6.521 0-10.248 0.932-2.795 0.932 1.863 3.726 2.795 5.589 0.932 1.863 1.863 3.726 1.398 6.056l-5.124-5.59c-6.055 3.261-9.782 9.316-14.906 13.974-2.329 1.863-1.397 5.124-1.397 7.918-3.261 0-6.987-0.932-8.85 0.932-1.397 1.863-0.932 4.658-0.932 7.453-4.658-0.466-5.124-7.453-9.315-6.056-4.192 0.932-8.85 1.397-12.577 3.727 2.795 5.59-4.658 2.329-3.726 3.26-6.987-4.192-13.042-7.453-20.495-4.658-15.837-5.124-35.4-2.795-49.84-0.931 0-2.329 0.466-4.658-0.466-5.124-0.932 2.329-3.726 1.397-3.26 1.397-8.85-6.055-17.7-9.782-27.016-14.905-8.384 0.932-16.303-3.261-18.632-5.59-6.521-6.055-13.974-2.795-20.029-4.192-13.042-3.261-17.7-16.769-19.098-26.084-0.932-4.658-4.658-6.521-6.055-6.056-6.055-19.563-15.371-37.263-22.824-55.429-1.863-4.658-1.397-9.316-1.397-14.44 2.329 0.932 4.658 0.466 4.192-2.794-2.329-15.371-7.918-27.016-13.974-38.195 3.261-15.837 3.726-34.469 11.179-48.443 6.521-12.576 18.632-19.098 27.016-29.811 2.795-3.726 2.795-8.85 5.59-12.11 9.316-9.316 18.632-19.098 28.879-27.482 4.658-3.726 10.247 0 17.234-1.397 2.329-8.384 11.645-15.837 20.495-13.508 3.726 0.932 11.179-8.85 13.508-9.782 3.726-1.397 1.863 3.726 1.863 6.987 8.85-6.987 20.961-10.713 32.14-14.906" fill="#8d021f" fill-rule="nonzero" stroke="none" stroke-width="1" stroke-linecap="butt" stroke-linejoin="miter" stroke-miterlimit="10" stroke-dasharray="" stroke-dashoffset="0" font-family="none" font-weight="none" font-size="none" text-anchor="none" style="mix-blend-mode: normal" data-fill-palette-color="tertiary"></path></g><g transform="matrix(1,0,0,1,64,149.43804283098166)"><svg viewBox="0 0 192 61.12391433803671" height="61.12391433803671" width="192"><g><svg viewBox="0 0 192 61.12391433803671" height="61.12391433803671" width="192"><g><svg viewBox="0 0 192 61.12391433803671" height="61.12391433803671" width="192"><g transform="matrix(1,0,0,1,0,36.324447169117185)"><svg viewBox="0 0 192 24.799467168919527" height="24.799467168919527" width="192"><g id="textblocktransform"><svg viewBox="0 0 192 24.799467168919527" height="24.799467168919527" width="192" id="textblock"><g><svg viewBox="0 0 192 14.059260585444456" height="14.059260585444456" width="192"><g transform="matrix(1,0,0,1,0,0)"><svg width="192" viewBox="1.7000000476837158 -40.20000076293945 558.5 40.900001525878906" height="14.059260585444456" data-palette-color="#8d021f"><path d="M20.95 0.7Q15.45 0.7 11.08-1.63 6.7-3.95 4.2-8.1 1.7-12.25 1.7-17.5L1.7-17.5Q1.7-22.75 4.2-26.9 6.7-31.05 11.08-33.38 15.45-35.7 20.95-35.7L20.95-35.7Q25.75-35.7 29.6-34 33.45-32.3 36-29.1L36-29.1 29.7-23.4Q26.3-27.5 21.45-27.5L21.45-27.5Q18.6-27.5 16.38-26.25 14.15-25 12.93-22.73 11.7-20.45 11.7-17.5L11.7-17.5Q11.7-14.55 12.93-12.28 14.15-10 16.38-8.75 18.6-7.5 21.45-7.5L21.45-7.5Q26.3-7.5 29.7-11.6L29.7-11.6 36-5.9Q33.45-2.7 29.6-1 25.75 0.7 20.95 0.7L20.95 0.7ZM52.7 0.45Q48.35 0.45 44.85-1.35 41.35-3.15 39.37-6.35 37.4-9.55 37.4-13.6L37.4-13.6Q37.4-17.6 39.37-20.8 41.35-24 44.82-25.78 48.3-27.55 52.7-27.55L52.7-27.55Q57.1-27.55 60.6-25.78 64.1-24 66.05-20.83 68-17.65 68-13.6L68-13.6Q68-9.55 66.05-6.35 64.1-3.15 60.6-1.35 57.1 0.45 52.7 0.45L52.7 0.45ZM52.7-7.1Q55.2-7.1 56.8-8.83 58.4-10.55 58.4-13.6L58.4-13.6Q58.4-16.6 56.8-18.3 55.2-20 52.7-20L52.7-20Q50.2-20 48.6-18.3 47-16.6 47-13.6L47-13.6Q47-10.55 48.6-8.83 50.2-7.1 52.7-7.1L52.7-7.1ZM91.69-37.1L101.19-37.1 101.19 0 92.14 0 92.14-2.7Q89.5 0.45 84.19 0.45L84.19 0.45Q80.5 0.45 77.44-1.28 74.39-3 72.62-6.2 70.84-9.4 70.84-13.6L70.84-13.6Q70.84-17.8 72.62-20.98 74.39-24.15 77.44-25.85 80.5-27.55 84.19-27.55L84.19-27.55Q89.05-27.55 91.69-24.75L91.69-24.75 91.69-37.1ZM86.19-7.1Q88.64-7.1 90.25-8.83 91.84-10.55 91.84-13.6L91.84-13.6Q91.84-16.6 90.27-18.3 88.69-20 86.19-20L86.19-20Q83.69-20 82.09-18.3 80.5-16.6 80.5-13.6L80.5-13.6Q80.5-10.55 82.09-8.83 83.69-7.1 86.19-7.1L86.19-7.1ZM134.99-13.5Q134.99-13.4 134.84-11.15L134.84-11.15 115.14-11.15Q115.74-9.05 117.47-7.93 119.19-6.8 121.79-6.8L121.79-6.8Q123.74-6.8 125.17-7.35 126.59-7.9 128.04-9.15L128.04-9.15 133.04-3.95Q129.09 0.45 121.49 0.45L121.49 0.45Q116.74 0.45 113.14-1.35 109.54-3.15 107.57-6.35 105.59-9.55 105.59-13.6L105.59-13.6Q105.59-17.6 107.52-20.78 109.44-23.95 112.84-25.75 116.24-27.55 120.49-27.55L120.49-27.55Q124.54-27.55 127.84-25.88 131.14-24.2 133.07-21.03 134.99-17.85 134.99-13.5L134.99-13.5ZM120.54-20.8Q118.34-20.8 116.87-19.55 115.39-18.3 114.99-16.15L114.99-16.15 126.09-16.15Q125.69-18.3 124.22-19.55 122.74-20.8 120.54-20.8L120.54-20.8ZM163.29-8.65L163.29-18.25 172.04-18.25 172.04-3.75Q169.04-1.6 165.14-0.45 161.24 0.7 157.34 0.7L157.34 0.7Q151.84 0.7 147.44-1.63 143.04-3.95 140.54-8.1 138.04-12.25 138.04-17.5L138.04-17.5Q138.04-22.75 140.54-26.9 143.04-31.05 147.49-33.38 151.94-35.7 157.54-35.7L157.54-35.7Q162.44-35.7 166.34-34.05 170.24-32.4 172.84-29.3L172.84-29.3 166.54-23.6Q162.99-27.5 158.04-27.5L158.04-27.5Q153.54-27.5 150.79-24.78 148.04-22.05 148.04-17.5L148.04-17.5Q148.04-14.6 149.29-12.33 150.54-10.05 152.79-8.78 155.04-7.5 157.94-7.5L157.94-7.5Q160.79-7.5 163.29-8.65L163.29-8.65ZM205.59-13.5Q205.59-13.4 205.44-11.15L205.44-11.15 185.74-11.15Q186.34-9.05 188.06-7.93 189.79-6.8 192.39-6.8L192.39-6.8Q194.34-6.8 195.76-7.35 197.19-7.9 198.64-9.15L198.64-9.15 203.64-3.95Q199.69 0.45 192.09 0.45L192.09 0.45Q187.34 0.45 183.74-1.35 180.14-3.15 178.16-6.35 176.19-9.55 176.19-13.6L176.19-13.6Q176.19-17.6 178.11-20.78 180.04-23.95 183.44-25.75 186.84-27.55 191.09-27.55L191.09-27.55Q195.14-27.55 198.44-25.88 201.74-24.2 203.66-21.03 205.59-17.85 205.59-13.5L205.59-13.5ZM191.14-20.8Q188.94-20.8 187.46-19.55 185.99-18.3 185.59-16.15L185.59-16.15 196.69-16.15Q196.29-18.3 194.81-19.55 193.34-20.8 191.14-20.8L191.14-20.8ZM227.63-27.55Q232.69-27.55 235.76-24.55 238.84-21.55 238.84-15.5L238.84-15.5 238.84 0 229.34 0 229.34-13.95Q229.34-19.5 224.88-19.5L224.88-19.5Q222.44-19.5 220.96-17.9 219.49-16.3 219.49-13.1L219.49-13.1 219.49 0 209.99 0 209.99-27.1 219.03-27.1 219.03-24.15Q220.63-25.8 222.84-26.68 225.03-27.55 227.63-27.55L227.63-27.55ZM244.78 0L244.78-27.1 254.28-27.1 254.28 0 244.78 0ZM249.53-30.1Q246.93-30.1 245.33-31.55 243.73-33 243.73-35.15L243.73-35.15Q243.73-37.3 245.33-38.75 246.93-40.2 249.53-40.2L249.53-40.2Q252.13-40.2 253.73-38.83 255.33-37.45 255.33-35.3L255.33-35.3Q255.33-33.05 253.73-31.58 252.13-30.1 249.53-30.1L249.53-30.1ZM279.43-27.1L288.93-27.1 288.93 0 279.88 0 279.88-2.9Q278.38-1.25 276.28-0.4 274.18 0.45 271.83 0.45L271.83 0.45Q266.58 0.45 263.45-2.65 260.33-5.75 260.33-11.95L260.33-11.95 260.33-27.1 269.83-27.1 269.83-13.5Q269.83-10.45 270.98-9.05 272.13-7.65 274.33-7.65L274.33-7.65Q276.58-7.65 278-9.22 279.43-10.8 279.43-14.05L279.43-14.05 279.43-27.1ZM304.88 0.45Q301.48 0.45 298.18-0.33 294.88-1.1 292.88-2.35L292.88-2.35 295.73-8.85Q297.58-7.7 300.13-7.03 302.68-6.35 305.18-6.35L305.18-6.35Q307.48-6.35 308.45-6.83 309.43-7.3 309.43-8.2L309.43-8.2Q309.43-9.1 308.25-9.47 307.08-9.85 304.53-10.2L304.53-10.2Q301.28-10.6 299-11.25 296.73-11.9 295.08-13.65 293.43-15.4 293.43-18.55L293.43-18.55Q293.43-21.15 294.98-23.18 296.53-25.2 299.5-26.38 302.48-27.55 306.63-27.55L306.63-27.55Q309.58-27.55 312.48-26.95 315.38-26.35 317.33-25.25L317.33-25.25 314.48-18.8Q310.88-20.8 306.68-20.8L306.68-20.8Q304.43-20.8 303.38-20.28 302.33-19.75 302.33-18.9L302.33-18.9Q302.33-17.95 303.48-17.57 304.63-17.2 307.28-16.8L307.28-16.8Q310.63-16.3 312.83-15.65 315.03-15 316.65-13.28 318.28-11.55 318.28-8.45L318.28-8.45Q318.28-5.9 316.73-3.88 315.18-1.85 312.15-0.7 309.13 0.45 304.88 0.45L304.88 0.45ZM337.37 0L337.37-35 347.27-35 347.27 0 337.37 0ZM371.52-27.55Q376.57-27.55 379.65-24.55 382.72-21.55 382.72-15.5L382.72-15.5 382.72 0 373.22 0 373.22-13.95Q373.22-19.5 368.77-19.5L368.77-19.5Q366.32-19.5 364.85-17.9 363.37-16.3 363.37-13.1L363.37-13.1 363.37 0 353.87 0 353.87-27.1 362.92-27.1 362.92-24.15Q364.52-25.8 366.72-26.68 368.92-27.55 371.52-27.55L371.52-27.55ZM398.52 0.45Q395.12 0.45 391.82-0.33 388.52-1.1 386.52-2.35L386.52-2.35 389.37-8.85Q391.22-7.7 393.77-7.03 396.32-6.35 398.82-6.35L398.82-6.35Q401.12-6.35 402.09-6.83 403.07-7.3 403.07-8.2L403.07-8.2Q403.07-9.1 401.89-9.47 400.72-9.85 398.17-10.2L398.17-10.2Q394.92-10.6 392.64-11.25 390.37-11.9 388.72-13.65 387.07-15.4 387.07-18.55L387.07-18.55Q387.07-21.15 388.62-23.18 390.17-25.2 393.14-26.38 396.12-27.55 400.27-27.55L400.27-27.55Q403.22-27.55 406.12-26.95 409.02-26.35 410.97-25.25L410.97-25.25 408.12-18.8Q404.52-20.8 400.32-20.8L400.32-20.8Q398.07-20.8 397.02-20.28 395.97-19.75 395.97-18.9L395.97-18.9Q395.97-17.95 397.12-17.57 398.27-17.2 400.92-16.8L400.92-16.8Q404.27-16.3 406.47-15.65 408.67-15 410.29-13.28 411.92-11.55 411.92-8.45L411.92-8.45Q411.92-5.9 410.37-3.88 408.82-1.85 405.79-0.7 402.77 0.45 398.52 0.45L398.52 0.45ZM432.37-7.75L434.72-1.1Q433.52-0.35 431.79 0.05 430.07 0.45 428.12 0.45L428.12 0.45Q422.82 0.45 419.97-2.15 417.12-4.75 417.12-9.9L417.12-9.9 417.12-19 413.17-19 413.17-26.1 417.12-26.1 417.12-33.15 426.62-33.15 426.62-26.1 432.82-26.1 432.82-19 426.62-19 426.62-10Q426.62-8.55 427.39-7.73 428.17-6.9 429.47-6.9L429.47-6.9Q431.12-6.9 432.37-7.75L432.37-7.75ZM438.36 0L438.36-27.1 447.86-27.1 447.86 0 438.36 0ZM443.11-30.1Q440.51-30.1 438.91-31.55 437.31-33 437.31-35.15L437.31-35.15Q437.31-37.3 438.91-38.75 440.51-40.2 443.11-40.2L443.11-40.2Q445.71-40.2 447.31-38.83 448.91-37.45 448.91-35.3L448.91-35.3Q448.91-33.05 447.31-31.58 445.71-30.1 443.11-30.1L443.11-30.1ZM470.36-7.75L472.71-1.1Q471.51-0.35 469.79 0.05 468.06 0.45 466.11 0.45L466.11 0.45Q460.81 0.45 457.96-2.15 455.11-4.75 455.11-9.9L455.11-9.9 455.11-19 451.16-19 451.16-26.1 455.11-26.1 455.11-33.15 464.61-33.15 464.61-26.1 470.81-26.1 470.81-19 464.61-19 464.61-10Q464.61-8.55 465.39-7.73 466.16-6.9 467.46-6.9L467.46-6.9Q469.11-6.9 470.36-7.75L470.36-7.75ZM495.36-27.1L504.86-27.1 504.86 0 495.81 0 495.81-2.9Q494.31-1.25 492.21-0.4 490.11 0.45 487.76 0.45L487.76 0.45Q482.51 0.45 479.38-2.65 476.26-5.75 476.26-11.95L476.26-11.95 476.26-27.1 485.76-27.1 485.76-13.5Q485.76-10.45 486.91-9.05 488.06-7.65 490.26-7.65L490.26-7.65Q492.51-7.65 493.93-9.22 495.36-10.8 495.36-14.05L495.36-14.05 495.36-27.1ZM527.31-7.75L529.66-1.1Q528.46-0.35 526.73 0.05 525.01 0.45 523.06 0.45L523.06 0.45Q517.76 0.45 514.91-2.15 512.06-4.75 512.06-9.9L512.06-9.9 512.06-19 508.11-19 508.11-26.1 512.06-26.1 512.06-33.15 521.56-33.15 521.56-26.1 527.76-26.1 527.76-19 521.56-19 521.56-10Q521.56-8.55 522.33-7.73 523.11-6.9 524.41-6.9L524.41-6.9Q526.06-6.9 527.31-7.75L527.31-7.75ZM560.2-13.5Q560.2-13.4 560.05-11.15L560.05-11.15 540.35-11.15Q540.95-9.05 542.68-7.93 544.4-6.8 547-6.8L547-6.8Q548.95-6.8 550.38-7.35 551.8-7.9 553.25-9.15L553.25-9.15 558.25-3.95Q554.3 0.45 546.7 0.45L546.7 0.45Q541.95 0.45 538.35-1.35 534.75-3.15 532.78-6.35 530.8-9.55 530.8-13.6L530.8-13.6Q530.8-17.6 532.73-20.78 534.65-23.95 538.05-25.75 541.45-27.55 545.7-27.55L545.7-27.55Q549.75-27.55 553.05-25.88 556.35-24.2 558.28-21.03 560.2-17.85 560.2-13.5L560.2-13.5ZM545.75-20.8Q543.55-20.8 542.08-19.55 540.6-18.3 540.2-16.15L540.2-16.15 551.3-16.15Q550.9-18.3 549.43-19.55 547.95-20.8 545.75-20.8L545.75-20.8Z" opacity="1" transform="matrix(1,0,0,1,0,0)" fill="#8d021f" class="undefined-text-0" data-fill-palette-color="primary" id="text-0"></path></svg></g></svg></g><g transform="matrix(1,0,0,1,0,16.110844127114852)"><svg viewBox="0 0 192 8.688623041804673" height="8.688623041804673" width="192"><g transform="matrix(1,0,0,1,0,0)"><svg width="192" viewBox="2.25 -36.25 814.3099975585938 36.849998474121094" height="8.688623041804673" data-palette-color="#ff908b"><path d="M20.1-35Q27.75-35 32.2-31.18 36.65-27.35 36.65-20.25L36.65-20.25 26.1-20.25Q26.1-23.25 24.53-25 22.95-26.75 20.05-26.75L20.05-26.75Q16.7-26.75 15.13-24.65 13.55-22.55 13.55-18.8L13.55-18.8 13.55-15.6Q13.55-11.9 15.13-9.78 16.7-7.65 19.95-7.65L19.95-7.65Q23.15-7.65 24.8-9.3 26.45-10.95 26.45-13.95L26.45-13.95 36.65-13.95Q36.65-6.9 32.33-3.15 28 0.6 20.1 0.6L20.1 0.6Q11.3 0.6 6.78-3.9 2.25-8.4 2.25-17.2L2.25-17.2Q2.25-26 6.78-30.5 11.3-35 20.1-35L20.1-35ZM68.21-27Q75.16-27 79.14-23.48 83.11-19.95 83.11-13.2L83.11-13.2Q83.11-6.45 79.14-2.93 75.16 0.6 68.21 0.6L68.21 0.6Q61.26 0.6 57.31-2.9 53.36-6.4 53.36-13.2L53.36-13.2Q53.36-20 57.31-23.5 61.26-27 68.21-27L68.21-27ZM68.21-20.25Q63.31-20.25 63.31-14.6L63.31-14.6 63.31-11.75Q63.31-6.15 68.21-6.15L68.21-6.15Q73.16-6.15 73.16-11.75L73.16-11.75 73.16-14.6Q73.16-20.25 68.21-20.25L68.21-20.25ZM127.87 0L119.77 0 118.92-3.75Q116.02 0.6 110.52 0.6L110.52 0.6Q105.17 0.6 102.27-2.9 99.37-6.4 99.37-13.25L99.37-13.25Q99.37-20.05 102.27-23.53 105.17-27 110.52-27L110.52-27Q115.07-27 117.92-23.95L117.92-23.95 117.92-36.25 127.87-36.25 127.87 0ZM113.62-19.65Q109.32-19.65 109.32-14.5L109.32-14.5 109.32-11.85Q109.32-6.75 113.62-6.75L113.62-6.75Q115.82-6.75 116.92-8.3 118.02-9.85 118.02-12.35L118.02-12.35 118.02-14Q118.02-16.5 116.92-18.07 115.82-19.65 113.62-19.65L113.62-19.65ZM160.23-27Q167.48-27 171.31-23.6 175.13-20.2 175.13-13.2L175.13-13.2 175.13-11.5 155.33-11.5Q155.33-8.65 156.61-7.2 157.88-5.75 160.63-5.75L160.63-5.75Q163.13-5.75 164.31-6.8 165.48-7.85 165.48-9.6L165.48-9.6 175.13-9.6Q175.13-4.8 171.48-2.1 167.83 0.6 160.83 0.6L160.83 0.6Q153.48 0.6 149.43-2.83 145.38-6.25 145.38-13.2L145.38-13.2Q145.38-20 149.33-23.5 153.28-27 160.23-27L160.23-27ZM160.63-20.65Q155.93-20.65 155.38-16.2L155.38-16.2 165.08-16.2Q165.08-18.25 163.91-19.45 162.73-20.65 160.63-20.65L160.63-20.65ZM210.59-35Q215.54-35 219.49-33.5 223.44-32 225.77-29.08 228.09-26.15 228.09-21.95L228.09-21.95 217.54-21.95Q217.54-24.1 215.64-25.43 213.74-26.75 211.04-26.75L211.04-26.75Q207.14-26.75 205.14-24.68 203.14-22.6 203.14-18.8L203.14-18.8 203.14-15.6Q203.14-11.8 205.14-9.73 207.14-7.65 211.04-7.65L211.04-7.65Q213.74-7.65 215.64-8.93 217.54-10.2 217.54-12.2L217.54-12.2 209.74-12.2 209.74-19.2 228.09-19.2 228.09 0 222.39 0 221.29-3.4Q216.59 0.6 208.99 0.6L208.99 0.6Q200.44 0.6 196.14-3.88 191.84-8.35 191.84-17.2L191.84-17.2Q191.84-25.95 196.72-30.48 201.59-35 210.59-35L210.59-35ZM260.55-27Q267.8-27 271.63-23.6 275.45-20.2 275.45-13.2L275.45-13.2 275.45-11.5 255.65-11.5Q255.65-8.65 256.93-7.2 258.2-5.75 260.95-5.75L260.95-5.75Q263.45-5.75 264.63-6.8 265.8-7.85 265.8-9.6L265.8-9.6 275.45-9.6Q275.45-4.8 271.8-2.1 268.15 0.6 261.15 0.6L261.15 0.6Q253.8 0.6 249.75-2.83 245.7-6.25 245.7-13.2L245.7-13.2Q245.7-20 249.65-23.5 253.6-27 260.55-27L260.55-27ZM260.95-20.65Q256.25-20.65 255.7-16.2L255.7-16.2 265.4-16.2Q265.4-18.25 264.23-19.45 263.05-20.65 260.95-20.65L260.95-20.65ZM311.12-27Q315.72-27 318.02-24.45 320.32-21.9 320.32-17.1L320.32-17.1 320.32 0 310.37 0 310.37-15.9Q310.37-17.6 309.49-18.63 308.62-19.65 307.02-19.65L307.02-19.65Q305.17-19.65 304.02-18.45 302.87-17.25 302.87-15.5L302.87-15.5 302.87 0 292.92 0 292.92-26.4 301.07-26.4 301.72-22.4Q303.27-24.5 305.79-25.75 308.32-27 311.12-27L311.12-27ZM349.23-29.5L339.28-29.5 339.28-36.25 349.23-36.25 349.23-29.5ZM349.23 0L339.28 0 339.28-26.4 349.23-26.4 349.23 0ZM395.54 0L387.39 0 386.74-4Q385.19-1.85 382.66-0.63 380.14 0.6 377.34 0.6L377.34 0.6Q372.74 0.6 370.44-1.95 368.14-4.5 368.14-9.3L368.14-9.3 368.14-26.4 378.09-26.4 378.09-10.5Q378.09-8.8 378.96-7.78 379.84-6.75 381.44-6.75L381.44-6.75Q383.29-6.75 384.44-7.95 385.59-9.15 385.59-10.9L385.59-10.9 385.59-26.4 395.54-26.4 395.54 0ZM426.8-27Q432.1-27 435.77-24.93 439.45-22.85 439.45-18.5L439.45-18.5 430.2-18.5Q430.2-19.95 428.9-20.55L428.9-20.55Q428-21.05 426.65-21.05L426.65-21.05Q423.05-21.05 423.05-19.35L423.05-19.35Q423.05-18.4 424.3-18 425.55-17.6 428.4-17.15L428.4-17.15Q431.9-16.65 434.25-15.98 436.6-15.3 438.35-13.58 440.1-11.85 440.1-8.75L440.1-8.75Q440.1-3.7 436.32-1.55 432.55 0.6 426.45 0.6L426.45 0.6Q422.95 0.6 419.85-0.38 416.75-1.35 414.8-3.4 412.85-5.45 412.85-8.6L412.85-8.6 422.1-8.6 422.1-8.4Q422.15-6.7 423.52-6.03 424.9-5.35 426.45-5.35L426.45-5.35Q430.6-5.35 430.6-7.3L430.6-7.3Q430.6-8.3 429.3-8.75 428-9.2 425.05-9.7L425.05-9.7Q421.5-10.3 419.22-11 416.95-11.7 415.25-13.38 413.55-15.05 413.55-18.05L413.55-18.05Q413.55-22.9 417.22-24.95 420.9-27 426.8-27L426.8-27ZM499.02 0L487.97 0 487.97-34.4 499.02-34.4 499.02 0ZM537.08-27Q541.68-27 543.98-24.45 546.28-21.9 546.28-17.1L546.28-17.1 546.28 0 536.33 0 536.33-15.9Q536.33-17.6 535.46-18.63 534.58-19.65 532.98-19.65L532.98-19.65Q531.13-19.65 529.98-18.45 528.83-17.25 528.83-15.5L528.83-15.5 528.83 0 518.88 0 518.88-26.4 527.03-26.4 527.68-22.4Q529.23-24.5 531.76-25.75 534.28-27 537.08-27L537.08-27ZM577.44-27Q582.74-27 586.42-24.93 590.09-22.85 590.09-18.5L590.09-18.5 580.84-18.5Q580.84-19.95 579.54-20.55L579.54-20.55Q578.64-21.05 577.29-21.05L577.29-21.05Q573.69-21.05 573.69-19.35L573.69-19.35Q573.69-18.4 574.94-18 576.19-17.6 579.04-17.15L579.04-17.15Q582.54-16.65 584.89-15.98 587.24-15.3 588.99-13.58 590.74-11.85 590.74-8.75L590.74-8.75Q590.74-3.7 586.97-1.55 583.19 0.6 577.09 0.6L577.09 0.6Q573.59 0.6 570.49-0.38 567.39-1.35 565.44-3.4 563.49-5.45 563.49-8.6L563.49-8.6 572.74-8.6 572.74-8.4Q572.79-6.7 574.17-6.03 575.54-5.35 577.09-5.35L577.09-5.35Q581.24-5.35 581.24-7.3L581.24-7.3Q581.24-8.3 579.94-8.75 578.64-9.2 575.69-9.7L575.69-9.7Q572.14-10.3 569.87-11 567.59-11.7 565.89-13.38 564.19-15.05 564.19-18.05L564.19-18.05Q564.19-22.9 567.87-24.95 571.54-27 577.44-27L577.44-27ZM620.1-26.4L625.7-26.4 625.7-19.65 620.1-19.65 620.1-9.6Q620.1-7.8 620.7-6.98 621.3-6.15 622.9-6.15L622.9-6.15 625.7-6.15 625.7-0.3Q624.5 0.1 622.6 0.35 620.7 0.6 619.3 0.6L619.3 0.6Q614.9 0.6 612.53-1 610.15-2.6 610.15-6.45L610.15-6.45 610.15-19.65 606.45-19.65 606.45-26.4 610.55-26.4 612.7-34.4 620.1-34.4 620.1-26.4ZM653.26-29.5L643.31-29.5 643.31-36.25 653.26-36.25 653.26-29.5ZM653.26 0L643.31 0 643.31-26.4 653.26-26.4 653.26 0ZM684.27-26.4L689.87-26.4 689.87-19.65 684.27-19.65 684.27-9.6Q684.27-7.8 684.87-6.98 685.47-6.15 687.07-6.15L687.07-6.15 689.87-6.15 689.87-0.3Q688.67 0.1 686.77 0.35 684.87 0.6 683.47 0.6L683.47 0.6Q679.07 0.6 676.7-1 674.32-2.6 674.32-6.45L674.32-6.45 674.32-19.65 670.62-19.65 670.62-26.4 674.72-26.4 676.87-34.4 684.27-34.4 684.27-26.4ZM734.43 0L726.28 0 725.63-4Q724.08-1.85 721.56-0.63 719.03 0.6 716.23 0.6L716.23 0.6Q711.63 0.6 709.33-1.95 707.03-4.5 707.03-9.3L707.03-9.3 707.03-26.4 716.98-26.4 716.98-10.5Q716.98-8.8 717.86-7.78 718.73-6.75 720.33-6.75L720.33-6.75Q722.18-6.75 723.33-7.95 724.48-9.15 724.48-10.9L724.48-10.9 724.48-26.4 734.43-26.4 734.43 0ZM765.15-26.4L770.75-26.4 770.75-19.65 765.15-19.65 765.15-9.6Q765.15-7.8 765.75-6.98 766.35-6.15 767.95-6.15L767.95-6.15 770.75-6.15 770.75-0.3Q769.55 0.1 767.65 0.35 765.75 0.6 764.35 0.6L764.35 0.6Q759.95 0.6 757.57-1 755.2-2.6 755.2-6.45L755.2-6.45 755.2-19.65 751.5-19.65 751.5-26.4 755.6-26.4 757.75-34.4 765.15-34.4 765.15-26.4ZM801.66-27Q808.91-27 812.73-23.6 816.56-20.2 816.56-13.2L816.56-13.2 816.56-11.5 796.76-11.5Q796.76-8.65 798.03-7.2 799.31-5.75 802.06-5.75L802.06-5.75Q804.56-5.75 805.73-6.8 806.91-7.85 806.91-9.6L806.91-9.6 816.56-9.6Q816.56-4.8 812.91-2.1 809.26 0.6 802.26 0.6L802.26 0.6Q794.91 0.6 790.86-2.83 786.81-6.25 786.81-13.2L786.81-13.2Q786.81-20 790.76-23.5 794.71-27 801.66-27L801.66-27ZM802.06-20.65Q797.36-20.65 796.81-16.2L796.81-16.2 806.51-16.2Q806.51-18.25 805.33-19.45 804.16-20.65 802.06-20.65L802.06-20.65Z" opacity="1" transform="matrix(1,0,0,1,0,0)" fill="#ff908b" class="undefined-text-1" data-fill-palette-color="secondary" id="text-1"></path></svg></g></svg></g></svg></g></svg></g><g transform="matrix(1,0,0,1,72.19963813397432,0)"><svg viewBox="0 0 47.60072373205136 34.27286362744679" height="34.27286362744679" width="47.60072373205136"><g><svg xmlns="http://www.w3.org/2000/svg" xmlns:xlink="http://www.w3.org/1999/xlink" version="1.1" x="0" y="0" viewBox="0 15 99.9990005493164 72" enable-background="new 0 0 100 100" xml:space="preserve" height="34.27286362744679" width="47.60072373205136" class="icon-icon-0" data-fill-palette-color="accent" id="icon-0"><g fill="#ff5858" data-fill-palette-color="accent"><polygon fill="#ff5858" points="33,67.685 45,72.534 45,69.429 38.065,66.551 45,63.583 45,60.501 33,65.35  " data-fill-palette-color="accent"></polygon><polygon fill="#ff5858" points="45.892,73.713 48.452,74.55 55.455,56.988 52.895,56.104  " data-fill-palette-color="accent"></polygon><polygon fill="#ff5858" points="57,63.583 63.934,66.551 57,69.429 57,72.534 69,67.685 69,65.35 57,60.501  " data-fill-palette-color="accent"></polygon><path fill="#ff5858" d="M19.766 35h-2.493l-0.657 4h-1.768l0.656-4h-2.516l-0.657 4H10v2h2.038l-0.34 3H10v2h1.38l-0.656 4h2.493l0.657-4h1.79l-0.657 4H17.5l0.68-4H20v-2h-1.525l0.317-3H21v-2h-1.869L19.766 35zM15.981 44h-1.768l0.295-3h1.791L15.981 44z" data-fill-palette-color="accent"></path><path fill="#ff5858" d="M96.223 15H3.777C1.691 15 0 16.691 0 18.777v64.445C0 85.309 1.691 87 3.777 87h92.445c2.086 0 3.777-1.691 3.777-3.777V18.777C100 16.691 98.309 15 96.223 15zM23.048 19.544c1.368 0 2.479 1.11 2.479 2.479 0 1.369-1.111 2.479-2.479 2.479s-2.479-1.109-2.479-2.479C20.569 20.654 21.68 19.544 23.048 19.544zM15.494 19.544c1.369 0 2.479 1.11 2.479 2.479 0 1.369-1.11 2.479-2.479 2.479-1.368 0-2.479-1.109-2.479-2.479C13.015 20.654 14.126 19.544 15.494 19.544zM7.94 19.544c1.368 0 2.479 1.11 2.479 2.479 0 1.369-1.11 2.479-2.479 2.479s-2.479-1.109-2.479-2.479C5.461 20.654 6.572 19.544 7.94 19.544zM94 76.059C94 78.235 92.235 80 90.058 80H7.942C5.765 80 4 78.235 4 76.059V32.941C4 30.765 5.765 29 7.942 29h82.115C92.235 29 94 30.765 94 32.941V76.059z" data-fill-palette-color="accent"></path><path fill="#ff5858" d="M75.367 36.812C74.879 37.341 75 38.073 75 38.972v3.391c0 0.278-0.404 0.509-0.484 0.694-0.08 0.186-0.473 0.327-0.599 0.427-0.125 0.099-0.275 0.168-0.434 0.208C73.324 43.731 73 43.75 73 43.75v2.182c0 0 0.342 0.02 0.499 0.06 0.159 0.04 0.372 0.112 0.499 0.218 0.125 0.106 0.463 0.255 0.542 0.447C74.618 46.848 75 47.096 75 47.4v3.311c0 0.899-0.121 1.29 0.367 1.818C75.857 53.058 76.151 53 76.984 53H80v-2h-1.377c-0.383 0-0.487 0.156-0.599-0.094C77.911 50.654 78 50.664 78 50.375v-3.233c0-0.437-0.24-0.796-0.371-1.081s-0.35-0.512-0.541-0.685c-0.191-0.171-0.328-0.297-0.54-0.376C76.336 44.921 76 44.875 76 44.861v-0.039c0-0.014 0.256-0.066 0.465-0.159 0.214-0.093 0.414-0.225 0.605-0.397 0.192-0.171 0.501-0.393 0.632-0.665C77.834 43.331 78 43.004 78 42.621v-3.312c0-0.29-0.089-0.621 0.024-0.872C78.136 38.186 78.24 38 78.623 38H80v-2h-3.016C76.151 36 75.857 36.283 75.367 36.812z" data-fill-palette-color="accent"></path><path fill="#ff5858" d="M89.083 43.484c-0.126-0.1-0.519-0.241-0.599-0.427C88.404 42.872 88 42.641 88 42.363v-3.391c0-0.899 0.121-1.631-0.367-2.161C87.143 36.283 86.849 36 86.016 36H83v2h1.377c0.383 0 0.487 0.186 0.599 0.437C85.089 38.688 85 39.019 85 39.309v3.312c0 0.384 0.166 0.71 0.298 0.981 0.131 0.271 0.439 0.493 0.632 0.665 0.191 0.172 0.392 0.304 0.605 0.397C86.744 44.756 87 44.809 87 44.822v0.039c0 0.014-0.336 0.06-0.548 0.139-0.212 0.08-0.349 0.205-0.54 0.377s-0.41 0.4-0.541 0.685S85 46.705 85 47.143v3.232c0 0.289 0.089 0.279-0.024 0.531C84.864 51.156 84.76 51 84.377 51H83v2h3.016c0.833 0 1.127 0.058 1.617-0.471C88.121 52.001 88 51.61 88 50.711V47.4c0-0.305 0.382-0.553 0.46-0.744 0.079-0.191 0.417-0.34 0.542-0.446 0.127-0.106 0.34-0.179 0.499-0.218C89.658 45.952 90 45.932 90 45.932V43.75c0 0-0.324-0.019-0.483-0.059C89.358 43.652 89.208 43.583 89.083 43.484z" data-fill-palette-color="accent"></path></g></svg></g></svg></g><g></g></svg></g></svg></g></svg></g></svg></g><defs></defs></svg><rect width="320" height="360" fill="none" stroke="none" visibility="hidden"></rect></g></svg></g></svg>